<?xml version="1.0" encoding="UTF-8"?>
<svg width="1280px" height="590px" viewBox="0 0 1280 590" version="1.1" xmlns="http://www.w3.org/2000/svg" xmlns:xlink="http://www.w3.org/1999/xlink">
    <title>FAQ General Image</title>
    <g id="FAQ-General-Image" stroke="none" stroke-width="1" fill="none" fill-rule="evenodd">
        <rect fill="#FFFFFF" x="0" y="0" width="1280" height="590"></rect>
        <g id="Question-image" transform="translate(1.000000, 0.001613)" fill="#9FD0D2">
            <path d="M1279,0.00283218428 L1279.00048,46.5597009 C1273.77287,47.5316324 1268.06023,50.27019 1262.3616,55.183065 L1262.3616,55.183065 L1264.13845,65.4633367 C1268.70759,61.3834782 1274.18928,58.3044168 1279.00093,57.0452805 L1279.00083,81.2894013 C1272.3288,84.1121771 1264.29249,86.037863 1258.48452,96.1595403 L1258.48452,96.1595403 L1266.99209,103.109462 C1270.60215,96.8181337 1274.7692,94.2029506 1279.0006,92.4137148 L1279.00048,239.559701 C1273.77287,240.531632 1268.06023,243.27019 1262.3616,248.183065 L1262.3616,248.183065 L1264.13845,258.463337 C1268.70759,254.383478 1274.18928,251.304417 1279.00093,250.045281 L1279.00083,274.289401 C1272.3288,277.112177 1264.29249,279.037863 1258.48452,289.15954 L1258.48452,289.15954 L1266.99209,296.109462 C1270.60215,289.818134 1274.7692,287.202951 1279.0006,285.413715 L1278.99995,461.88121 C1278.39625,462.718911 1277.81032,463.625769 1277.24547,464.610148 L1277.24547,464.610148 L1279,466.044 L1279.00022,473.216164 C1269.23232,471.936056 1264.56364,486.675912 1274.4373,491.490995 L1274.76396,491.644244 C1276.27774,492.061031 1277.70082,492.089673 1279.00054,491.819829 L1279,589.990899 L1210.91631,589.990037 C1214.20542,586.675516 1217.75548,585.185012 1221.28244,583.875163 L1221.99058,583.613964 C1222.10852,583.570671 1222.22642,583.527457 1222.34426,583.484261 L1223.0505,583.224802 C1229.16381,580.969414 1235.06298,578.427698 1239.249,566.926723 C1247.91825,543.108135 1224.90831,527.989716 1202.12255,547.633673 L1202.12255,547.633673 L1203.89941,557.913944 C1216.1628,546.963773 1234.9998,543.222977 1229.81258,562.528792 C1225.05165,578.136347 1208.30571,571.077966 1198.24547,588.610148 L1198.24547,588.610148 L1199.934,589.99 L912.801821,589.992151 C913.489516,588.710883 914.145984,587.269242 914.766563,585.640252 L915.009954,584.986612 C923.67921,561.168025 900.669267,546.049606 877.883511,565.693562 L877.883511,565.693562 L879.660365,575.973834 C891.923753,565.023663 910.760755,561.282866 905.573535,580.588682 C904.093998,585.438991 901.456996,588.100315 898.222885,589.990945 L573.782755,589.99008 C574.313659,571.893316 554.471181,562.936244 534.795862,579.898645 L534.795862,579.898645 L536.54,589.99 L216.103517,589.989995 C213.146851,575.674412 195.715591,569.898973 178.228474,584.442492 L177.544866,585.021408 L178.403,589.99 L59.318582,589.989552 C59.0059286,589.819519 58.6741152,589.663309 58.3226514,589.52227 L58.0109183,589.403066 C54.9672692,588.295268 52.2946473,588.703075 50.2246575,589.990158 L0,589.990899 L0,0.00283218428 L261.955186,0.000401386094 C260.905121,1.25450189 259.898735,2.68712551 258.951606,4.33770557 L258.951606,4.33770557 L267.459176,11.2876276 C271.485397,4.27105015 276.204422,1.82702405 280.932858,0.00166557372 L398.771245,-0.000609828345 C396.802777,1.20071024 394.814881,2.648903 392.828689,4.3612302 L392.828689,4.3612302 L394.605544,14.6415019 C406.868931,3.69133056 425.705933,-0.0494660255 420.518713,19.2563494 C415.757789,34.863904 399.011844,27.8055235 388.951606,45.3377056 L388.951606,45.3377056 L397.459176,52.2876276 C401.834465,44.6627222 407.027896,42.4376067 412.162472,40.5382714 L413.050392,40.2118189 L413.756638,39.9523591 L413.756638,39.9523591 L414.280076,39.7581366 C420.205639,37.5444165 425.888719,34.8266557 429.955132,23.6542799 C433.639681,13.5310627 431.601817,4.97941204 426.290851,0.000197775275 L587.170716,0.00237415688 C588.114193,1.42396843 589.516493,2.65627218 591.441247,3.52446461 C595.613228,4.67312533 599.096197,2.87364032 601.207047,0.00282847043 L756.789121,0.00218825098 C750.747779,11.276999 735.84593,6.60845865 726.59607,22.7283799 L726.59607,22.7283799 L735.10364,29.6783019 C739.366199,22.2498514 744.405286,19.9465253 749.409958,18.0764898 L749.987221,17.8623724 L750.694856,17.6024932 C750.782023,17.57054 750.869159,17.5385964 750.956259,17.5066373 L751.478392,17.3144984 C751.65227,17.2502573 751.825969,17.1857548 751.999455,17.1207912 L752.51924,16.9243175 C758.229085,14.7434961 763.669419,11.8430246 767.599595,1.04495428 C767.726932,0.695097697 767.847435,0.347118159 767.961204,0.00109826245 L1079.02215,0.00147897661 C1076.19581,2.01294399 1073.49621,4.75952676 1071.15782,8.83467835 L1071.15782,8.83467835 L1079.66539,15.7846004 C1084.0919,8.07044024 1089.35581,5.8832264 1094.54897,3.96867086 L1094.54897,3.96867086 L1095.25661,3.70879168 C1095.34378,3.67683847 1095.43091,3.64489482 1095.51801,3.61293576 L1096.04015,3.42079681 C1098.48373,2.51798462 1100.89208,1.56355329 1103.16936,0.003117328 L1279,0.00283218428 Z M186.741786,589.989922 C194.651134,585.544139 202.833585,584.517831 205.341669,589.989369 Z M536.785156,589.990524 C547.90382,580.197855 564.217894,576.333986 563.334596,589.989274 Z M377.022871,570.747375 C365.652496,566.608897 359.46017,583.622174 370.520928,588.611316 C381.388749,591.603524 387.581075,574.590247 377.022871,570.747375 Z M745.178249,570.57522 C733.807875,566.436743 727.615548,583.450019 738.676306,588.439161 C749.544127,591.431369 755.736454,574.418093 745.178249,570.57522 Z M94.9940174,558.549485 C103.663274,534.730898 80.653331,519.612479 57.8675748,539.256435 L57.8675748,539.256435 L59.6444292,549.536707 C71.9078166,538.586536 90.7448184,534.845739 85.5575986,554.151555 C80.7966745,569.759109 64.0507294,562.700729 53.9904921,580.232911 L53.9904921,580.232911 L62.498062,587.182833 C66.6575831,579.93395 71.5565431,577.565407 76.441398,575.717459 L77.0274647,575.497925 L77.7356021,575.236726 C77.9085847,575.17323 78.0814658,575.109905 78.2542117,575.046555 L78.7720103,574.856237 L78.7720103,574.856237 L79.2887959,574.664606 L79.2887959,574.664606 L79.8043669,574.470494 C79.890183,574.43787 79.97594,574.405095 80.0616338,574.372143 L80.5750043,574.172119 C86.0421461,572.01181 91.2158727,568.929852 94.9940174,558.549485 Z M414.00597,539.893794 C422.675226,516.075207 399.665283,500.956788 376.879527,520.600745 L376.879527,520.600745 L378.656381,530.881016 C390.919769,519.930845 409.756771,516.190048 404.569551,535.495864 C399.808627,551.103418 383.062682,544.045038 373.002444,561.57722 L373.002444,561.57722 L381.510014,568.527142 C386.338928,560.111695 392.164427,558.27377 397.807476,556.191874 L397.807476,556.191874 L398.511822,555.929872 C404.372028,553.727716 409.980958,550.952424 414.00597,539.893794 Z M782.161348,539.72164 C790.830605,515.903052 767.820662,500.784633 745.034906,520.42859 L745.034906,520.42859 L746.81176,530.708862 C759.075147,519.75869 777.912149,516.017894 772.724929,535.323709 C767.964005,550.931264 751.21806,543.872883 741.157823,561.405065 L741.157823,561.405065 L749.665393,568.354987 C753.84598,561.069392 758.773515,558.713696 763.682947,556.861576 L764.260398,556.645736 L764.260398,556.645736 L764.548974,556.539058 L765.256609,556.279179 L765.962855,556.019719 C766.080418,555.976346 766.197903,555.932867 766.315297,555.889221 L766.315297,555.889221 L767.0185,555.624839 C772.75113,553.441236 778.216836,550.559097 782.161348,539.72164 Z M1097.2659,542.780303 C1085.89552,538.641825 1079.7032,555.655102 1090.76396,560.644244 C1101.63178,563.636452 1107.8241,546.623176 1097.2659,542.780303 Z M1134.249,511.926723 C1142.91825,488.108135 1119.90831,472.989716 1097.12255,492.633673 L1097.12255,492.633673 L1098.89941,502.913944 C1111.1628,491.963773 1129.9998,488.222977 1124.81258,507.528792 C1120.05165,523.136347 1103.30571,516.077966 1093.24547,533.610148 L1093.24547,533.610148 L1101.75304,540.56007 C1106.07894,533.021232 1111.20462,530.76097 1116.28244,528.875163 L1116.99058,528.613964 C1117.10852,528.570671 1117.22642,528.527457 1117.34426,528.484261 L1118.0505,528.224802 C1124.16381,525.969414 1130.06298,523.427698 1134.249,511.926723 Z M625.939205,520.045276 C614.568831,515.906798 608.376505,532.920075 619.437263,537.909216 C630.305084,540.901425 636.49741,523.888148 625.939205,520.045276 Z M257.174265,520.045276 C245.803891,515.906798 239.611564,532.920075 250.672322,537.909216 C261.540143,540.901425 267.73247,523.888148 257.174265,520.045276 Z M294.157364,489.191695 C302.826621,465.373108 279.816678,450.254688 257.030921,469.898645 L257.030921,469.898645 L258.807776,480.178917 C271.071163,469.228746 289.908165,465.487949 284.720945,484.793764 C279.960021,500.401319 263.214076,493.342938 253.153839,510.875121 L253.153839,510.875121 L261.661409,517.825043 C265.841996,510.539447 270.769531,508.183751 275.678963,506.331631 L276.256414,506.115791 L276.256414,506.115791 L276.54499,506.009113 L277.252625,505.749234 L277.958871,505.489774 C278.076434,505.446401 278.193918,505.402922 278.311313,505.359276 L278.311313,505.359276 L279.014516,505.094894 C284.747146,502.911291 290.212852,500.029152 294.157364,489.191695 Z M662.922304,489.191695 C671.591561,465.373108 648.581618,450.254688 625.795862,469.898645 L625.795862,469.898645 L627.572716,480.178917 C639.836103,469.228746 658.673105,465.487949 653.485885,484.793764 C648.724961,500.401319 631.979016,493.342938 621.918779,510.875121 L621.918779,510.875121 L630.426349,517.825043 C634.606936,510.539447 639.534471,508.183751 644.443903,506.331631 L645.021354,506.115791 L645.021354,506.115791 L645.30993,506.009113 L646.017565,505.749234 L646.723811,505.489774 C646.841374,505.446401 646.958859,505.402922 647.076253,505.359276 L647.076253,505.359276 L647.779457,505.094894 C653.512086,502.911291 658.977792,500.029152 662.922304,489.191695 Z M977.265898,492.780303 C965.895524,488.641825 959.703198,505.655102 970.763956,510.644244 C981.631777,513.636452 987.824103,496.623176 977.265898,492.780303 Z M157.935221,477.952458 C146.564847,473.81398 140.372521,490.827257 151.433279,495.816398 C162.3011,498.808607 168.493426,481.79533 157.935221,477.952458 Z M1014.249,461.926723 C1022.91825,438.108135 999.908311,422.989716 977.122555,442.633673 L977.122555,442.633673 L978.899409,452.913944 C991.162797,441.963773 1009.9998,438.222977 1004.81258,457.528792 C1000.05165,473.136347 983.305709,466.077966 973.245472,483.610148 L973.245472,483.610148 L981.753042,490.56007 C986.078944,483.021232 991.204623,480.76097 996.282445,478.875163 L996.990582,478.613964 C997.108525,478.570671 997.22642,478.527457 997.344258,478.484261 L998.050504,478.224802 C1004.16381,475.969414 1010.06298,473.427698 1014.249,461.926723 Z M503.700161,459.515331 C492.329787,455.376853 486.137461,472.39013 497.198219,477.379271 C508.06604,480.37148 514.258366,463.358203 503.700161,459.515331 Z M194.91832,447.098877 C203.587577,423.28029 180.577634,408.161871 157.791878,427.805827 L157.791878,427.805827 L159.568732,438.086099 C171.832119,427.135928 190.669121,423.395131 185.481901,442.700947 C180.720977,458.308501 163.975032,451.250121 153.914795,468.782303 L153.914795,468.782303 L162.422365,475.732225 C166.602952,468.446629 171.530487,466.090933 176.439919,464.238813 L177.01737,464.022973 L177.01737,464.022973 L177.305946,463.916295 L178.013581,463.656416 L178.013581,463.656416 L178.719827,463.396956 L179.424172,463.134955 L179.424172,463.134955 L179.94826,462.93601 C180.035484,462.902529 180.122643,462.868868 180.209733,462.835004 L180.731407,462.629155 C186.112711,460.472445 191.193682,457.332236 194.91832,447.098877 Z M540.68326,428.66175 C549.352517,404.843163 526.342574,389.724744 503.556818,409.3687 L503.556818,409.3687 L505.333672,419.648972 C517.59706,408.698801 536.434061,404.958004 531.246842,424.26382 C526.485918,439.871374 509.739972,432.812994 499.679735,450.345176 L499.679735,450.345176 L508.187305,457.295098 C512.367892,450.009502 517.295428,447.653806 522.204859,445.801686 L522.78231,445.585846 L522.78231,445.585846 L523.070886,445.479168 L523.778521,445.219289 L523.778521,445.219289 L524.484767,444.959829 L525.189113,444.697828 C525.626441,444.533488 526.062371,444.365956 526.496347,444.192028 L527.016145,443.980039 C532.204045,441.825342 537.078772,438.565001 540.68326,428.66175 Z M855.417293,437.515331 C844.046919,433.376853 837.854592,450.39013 848.91535,455.379271 C859.783171,458.37148 865.975498,441.358203 855.417293,437.515331 Z M43.3166541,432.250402 C31.9462798,428.111925 25.7539535,445.125201 36.8147115,450.114343 C47.6825325,453.106551 53.8748588,436.093275 43.3166541,432.250402 Z M892.400392,406.66175 C901.069649,382.843163 878.059706,367.724744 855.273949,387.3687 L855.273949,387.3687 L857.050804,397.648972 C869.314191,386.698801 888.151193,382.958004 882.963973,402.26382 C878.203049,417.871374 861.457104,410.812994 851.396867,428.345176 L851.396867,428.345176 L859.904436,435.295098 C864.085024,428.009502 869.012559,425.653806 873.921991,423.801686 L874.499441,423.585846 L874.499441,423.585846 L874.788018,423.479168 L875.495652,423.219289 C875.58282,423.187336 875.669956,423.155392 875.757056,423.123433 L876.279189,422.931294 C876.453067,422.867053 876.626766,422.802551 876.800252,422.737587 L877.320036,422.541113 C883.029882,420.360292 888.470216,417.45982 892.400392,406.66175 Z M1200.50494,414.329695 C1189.13457,410.191218 1182.94224,427.204494 1194.003,432.193636 C1204.87082,435.185844 1211.06315,418.172568 1200.50494,414.329695 Z M80.2997532,401.396822 C88.96901,377.578234 65.9590668,362.459815 43.1733106,382.103772 L43.1733106,382.103772 L44.950165,392.384044 C57.2135524,381.433872 76.0505541,377.693076 70.8633344,396.998891 C66.1024103,412.606446 49.3564652,405.548065 39.2962279,423.080247 L39.2962279,423.080247 L47.8037977,430.030169 C52.2303022,422.316009 57.494215,420.128795 62.6873788,418.21424 L63.3950137,417.954361 L63.3950137,417.954361 L64.1012598,417.694901 C70.2145629,415.439513 76.1137406,412.897797 80.2997532,401.396822 Z M390.851556,404.813231 C379.481181,400.674754 373.288855,417.68803 384.349613,422.677172 C395.217434,425.66938 401.40976,408.656104 390.851556,404.813231 Z M1237.48804,383.476115 C1246.1573,359.657527 1223.14735,344.539108 1200.3616,364.183065 L1200.3616,364.183065 L1202.13845,374.463337 C1214.40184,363.513165 1233.23884,359.772369 1228.05162,379.078184 C1223.2907,394.685739 1206.54475,387.627358 1196.48452,405.15954 L1196.48452,405.15954 L1204.99209,412.109462 C1209.39741,404.432212 1214.63215,402.229145 1219.80112,400.321034 L1220.3972,400.101881 C1220.69504,399.992665 1220.99255,399.883767 1221.28955,399.774194 L1221.28955,399.774194 L1221.99389,399.512193 C1227.8541,397.310036 1233.46303,394.534745 1237.48804,383.476115 Z M741.178249,390.985386 C729.807875,386.846908 723.615548,403.860185 734.676306,408.849327 C745.544127,411.841535 751.736454,394.828258 741.178249,390.985386 Z M427.834655,373.959651 C436.503912,350.141063 413.493968,335.022644 390.708212,354.666601 L390.708212,354.666601 L392.485067,364.946873 C404.748454,353.996701 423.585456,350.255905 418.398236,369.56172 C413.637312,385.169275 396.891367,378.110894 386.83113,395.643076 L386.83113,395.643076 L395.338699,402.592998 C399.765204,394.878838 405.029117,392.691624 410.22228,390.777069 L410.22228,390.777069 L410.929915,390.51719 L411.988604,390.127232 L411.988604,390.127232 L412.516237,389.929484 C412.691888,389.863053 412.867301,389.796036 413.04244,389.728225 L413.566999,389.522206 C418.978202,387.364443 424.091394,384.244176 427.834655,373.959651 Z M778.161348,360.131805 C786.830605,336.313218 763.820662,321.194799 741.034906,340.838756 L741.034906,340.838756 L742.81176,351.119027 C755.075147,340.168856 773.912149,336.428059 768.724929,355.733875 C766.487295,363.069425 761.60217,365.398071 756.008004,367.626123 L755.290153,367.910387 C749.158217,370.328411 742.288544,372.873818 737.157823,381.815231 L737.157823,381.815231 L745.665393,388.765153 C749.84598,381.479557 754.773515,379.123861 759.682947,377.271742 L760.260398,377.055902 L760.260398,377.055902 L760.548974,376.949223 L761.256609,376.689344 L761.256609,376.689344 L761.962855,376.429884 L762.6672,376.167883 C763.104529,376.003543 763.540459,375.836011 763.974435,375.662083 L764.494233,375.450094 C769.682132,373.295398 774.55686,370.035056 778.161348,360.131805 Z M1091.50494,363.329695 C1080.13457,359.191218 1073.94224,376.204494 1085.003,381.193636 C1095.87082,384.185844 1102.06315,367.172568 1091.50494,363.329695 Z M275.612512,358.720414 C264.242138,354.581936 258.049811,371.595213 269.110569,376.584354 C279.97839,379.576563 286.170717,362.563286 275.612512,358.720414 Z M1128.48804,332.476115 C1137.1573,308.657527 1114.14735,293.539108 1091.3616,313.183065 L1091.3616,313.183065 L1093.13845,323.463337 C1105.40184,312.513165 1124.23884,308.772369 1119.05162,328.078184 C1114.2907,343.685739 1097.54475,336.627358 1087.48452,354.15954 L1087.48452,354.15954 L1095.99209,361.109462 C1100.39741,353.432212 1105.63215,351.229145 1110.80112,349.321034 L1111.3972,349.101881 C1111.69504,348.992665 1111.99255,348.883767 1112.28955,348.774194 L1112.28955,348.774194 L1112.99389,348.512193 C1118.8541,346.310036 1124.46303,343.534745 1128.48804,332.476115 Z M312.595611,327.866833 C321.264868,304.048246 298.254925,288.929827 275.469168,308.573783 L275.469168,308.573783 L277.246023,318.854055 C289.50941,307.903884 308.346412,304.163087 303.159192,323.468902 C298.398268,339.076457 281.652323,332.018076 271.592086,349.550259 L271.592086,349.550259 L280.099656,356.500181 C284.52616,348.78602 289.790073,346.598807 294.983237,344.684251 L294.983237,344.684251 L295.690872,344.424372 C295.778039,344.392419 295.865175,344.360475 295.952275,344.328516 L296.474408,344.136377 C296.648286,344.072136 296.821985,344.007633 296.995471,343.94267 L297.515256,343.746196 C303.225101,341.565375 308.665435,338.664903 312.595611,327.866833 Z M971.656337,331.064723 C960.285962,326.926245 954.093636,343.939522 965.154394,348.928664 C976.022215,351.920872 982.214541,334.907595 971.656337,331.064723 Z M625.939205,326.455441 C614.568831,322.316963 608.376505,339.33024 619.437263,344.319382 C630.305084,347.31159 636.49741,330.298314 625.939205,326.455441 Z M1008.63944,300.211142 C1017.30869,276.392555 994.298749,261.274136 971.512993,280.918093 L971.512993,280.918093 L973.289848,291.198364 C985.553235,280.248193 1004.39024,276.507396 999.203017,295.813212 C994.442093,311.420766 977.696148,304.362386 967.63591,321.894568 L967.63591,321.894568 L976.14348,328.84449 C980.40604,321.416039 985.445127,319.112713 990.449798,317.242678 L991.027061,317.02856 L991.734696,316.768681 C991.821864,316.736728 991.909,316.704784 991.9961,316.672825 L992.518233,316.480686 C992.865988,316.352204 993.213029,316.222677 993.55908,316.090506 L994.07738,315.890067 L994.07738,315.890067 L994.593988,315.684465 C999.922813,313.529103 1004.94745,310.354784 1008.63944,300.211142 Z M162.493945,308.018358 C151.123571,303.87988 144.931244,320.893157 155.992002,325.882299 C166.859823,328.874507 173.05215,311.86123 162.493945,308.018358 Z M662.922304,295.601861 C671.591561,271.783273 648.581618,256.664854 625.795862,276.308811 L625.795862,276.308811 L627.572716,286.589082 C639.836103,275.638911 658.673105,271.898115 653.485885,291.20393 C648.724961,306.811485 631.979016,299.753104 621.918779,317.285286 L621.918779,317.285286 L630.426349,324.235208 C634.606936,316.949613 639.534471,314.593916 644.443903,312.741797 L645.021354,312.525957 L645.021354,312.525957 L645.30993,312.419279 L646.017565,312.1594 L646.017565,312.1594 L646.723811,311.89994 L647.428156,311.637938 C647.865485,311.473598 648.301415,311.306066 648.735391,311.132138 L649.255189,310.920149 C654.443088,308.765453 659.317816,305.505111 662.922304,295.601861 Z M1262.50494,298.329695 C1251.13457,294.191218 1244.94224,311.204494 1256.003,316.193636 C1266.87082,319.185844 1273.06315,302.172568 1262.50494,298.329695 Z M199.477044,277.164777 C208.146301,253.34619 185.136358,238.227771 162.350601,257.871728 L162.350601,257.871728 L164.127456,268.151999 C176.390843,257.201828 195.227845,253.461031 190.040625,272.766847 C185.279701,288.374401 168.533756,281.316021 158.473519,298.848203 L158.473519,298.848203 L166.981089,305.798125 C171.810002,297.382678 177.635502,295.544753 183.278551,293.462856 L183.278551,293.462856 L183.982896,293.200855 C189.843102,290.998699 195.452032,288.223407 199.477044,277.164777 Z M506.0906,275.753342 C494.720225,271.614864 488.527899,288.628141 499.588657,293.617282 C510.456478,296.609491 516.648804,279.596214 506.0906,275.753342 Z M856.417293,266.534778 C845.046919,262.3963 838.854592,279.409577 849.91535,284.398719 C860.783171,287.390927 866.975498,270.377651 856.417293,266.534778 Z M47.2549011,257.316259 C35.8845268,253.177781 29.6922005,270.191057 40.7529585,275.180199 C51.6207795,278.172408 57.8131058,261.159131 47.2549011,257.316259 Z M543.073699,244.899761 C551.742956,221.081174 528.733012,205.962755 505.947256,225.606711 L505.947256,225.606711 L507.724111,235.886983 C519.987498,224.936812 538.8245,221.196015 533.63728,240.501831 C528.876356,256.109385 512.130411,249.051005 502.070173,266.583187 L502.070173,266.583187 L510.577743,273.533109 C520.637981,256.000927 535.023675,267.017021 543.073699,244.899761 Z M893.400392,235.681198 C902.069649,211.86261 879.059706,196.744191 856.273949,216.388148 L856.273949,216.388148 L858.050804,226.668419 C870.314191,215.718248 889.151193,211.977452 883.963973,231.283267 C879.203049,246.890822 862.457104,239.832441 852.396867,257.364623 L852.396867,257.364623 L860.904436,264.314545 C865.166996,256.886095 870.206083,254.582769 875.210754,252.712733 L875.788018,252.498616 L876.495652,252.238736 C876.58282,252.206783 876.669956,252.17484 876.757056,252.142881 L877.279189,251.950742 C877.626944,251.822259 877.973985,251.692732 878.320036,251.560561 L878.838336,251.360122 C884.358213,249.196701 889.589312,246.152054 893.400392,235.681198 Z M1173.50494,239.329695 C1162.13457,235.191218 1155.94224,252.204494 1167.003,257.193636 C1177.87082,260.185844 1184.06315,243.172568 1173.50494,239.329695 Z M84.2380002,226.462678 C92.907257,202.644091 69.8973138,187.525671 47.1115576,207.169628 L47.1115576,207.169628 L48.888412,217.4499 C61.1517994,206.499728 79.9888012,202.758932 74.8015814,222.064747 C70.0406573,237.672302 53.2947122,230.613921 43.2344749,248.146103 L43.2344749,248.146103 L51.7420448,255.096026 C56.0679468,247.557187 61.1936258,245.296925 66.2714475,243.411118 L66.9795849,243.149919 C67.0975276,243.106626 67.2154231,243.063413 67.3332607,243.020217 L68.0395068,242.760757 C74.15281,240.505369 80.0519876,237.963653 84.2380002,226.462678 Z M390.851556,229.660524 C379.481181,225.522046 373.288855,242.535323 384.349613,247.524465 C395.217434,250.516673 401.40976,233.503396 390.851556,229.660524 Z M1210.48804,208.476115 C1219.1573,184.657527 1196.14735,169.539108 1173.3616,189.183065 L1173.3616,189.183065 L1175.13845,199.463337 C1187.40184,188.513165 1206.23884,184.772369 1201.05162,204.078184 C1196.2907,219.685739 1179.54475,212.627358 1169.48452,230.15954 L1169.48452,230.15954 L1177.99209,237.109462 C1182.39741,229.432212 1187.63215,227.229145 1192.80112,225.321034 L1193.3972,225.101881 C1193.69504,224.992665 1193.99255,224.883767 1194.28955,224.774194 L1194.28955,224.774194 L1194.99389,224.512193 C1200.8541,222.310036 1206.46303,219.534745 1210.48804,208.476115 Z M427.834655,198.806943 C436.503912,174.988356 413.493968,159.869937 390.708212,179.513894 L390.708212,179.513894 L392.485067,189.794165 C404.748454,178.843994 423.585456,175.103197 418.398236,194.409013 C413.637312,210.016567 396.891367,202.958187 386.83113,220.490369 L386.83113,220.490369 L395.338699,227.440291 C399.765204,219.726131 405.029117,217.538917 410.22228,215.624361 L410.22228,215.624361 L410.929915,215.364482 C411.017083,215.332529 411.104219,215.300585 411.191319,215.268626 L411.713452,215.076487 C411.887329,215.012246 412.061029,214.947744 412.234515,214.88278 L412.754299,214.686307 C418.464145,212.505485 423.904479,209.605014 427.834655,198.806943 Z M741.178249,202.004833 C729.807875,197.866356 723.615548,214.879632 734.676306,219.868774 C745.544127,222.860982 751.736454,205.847706 741.178249,202.004833 Z M1063.94319,193.660524 C1052.57281,189.522046 1046.38049,206.535323 1057.44125,211.524465 C1068.30907,214.516673 1074.50139,197.503396 1063.94319,193.660524 Z M778.161348,171.151253 C786.830605,147.332665 763.820662,132.214246 741.034906,151.858203 L741.034906,151.858203 L742.81176,162.138475 C755.075147,151.188303 773.912149,147.447507 768.724929,166.753322 C766.487295,174.088873 761.60217,176.417518 756.008004,178.64557 L755.290153,178.929834 C749.158217,181.347858 742.288544,183.893265 737.157823,192.834678 L737.157823,192.834678 L745.665393,199.7846 C750.091897,192.07044 755.35581,189.883226 760.548974,187.968671 L760.548974,187.968671 L761.256609,187.708792 C761.343776,187.676838 761.430912,187.644895 761.518012,187.612936 L762.040145,187.420797 C768.125857,185.172358 773.992979,182.603752 778.161348,171.151253 Z M277.732989,178.958469 C266.362614,174.819991 260.170288,191.833267 271.231046,196.822409 C282.098867,199.814617 288.291193,182.801341 277.732989,178.958469 Z M1100.92629,162.806943 C1109.59555,138.988356 1086.5856,123.869937 1063.79985,143.513894 L1063.79985,143.513894 L1065.5767,153.794165 C1077.84009,142.843994 1096.67709,139.103197 1091.48987,158.409013 C1086.72895,174.016567 1069.983,166.958187 1059.92276,184.490369 L1059.92276,184.490369 L1068.43033,191.440291 C1072.85684,183.726131 1078.12075,181.538917 1083.31391,179.624361 L1083.31391,179.624361 L1084.02155,179.364482 C1084.25722,179.27809 1084.49267,179.191768 1084.72779,179.105022 L1084.72779,179.105022 L1085.43214,178.843021 C1085.69454,178.744417 1085.95643,178.644664 1086.2177,178.54307 L1086.73937,178.337221 C1092.12068,176.180511 1097.20165,173.040302 1100.92629,162.806943 Z M314.716088,148.104888 C323.385345,124.2863 300.375401,109.167881 277.589645,128.811838 L277.589645,128.811838 L279.3665,139.09211 C291.629887,128.141938 310.466889,124.401142 305.279669,143.706957 C302.899207,151.510735 297.52249,153.648028 291.483358,156.0259 L291.483358,156.0259 L290.755632,156.312777 C284.910777,158.623084 278.541476,161.372866 273.712563,169.788313 L273.712563,169.788313 L282.220132,176.738235 C286.40072,169.45264 291.328255,167.096944 296.237687,165.244824 L296.815137,165.028984 L296.815137,165.028984 L297.103713,164.922306 L297.811348,164.662427 L297.811348,164.662427 L298.517594,164.402967 L299.22194,164.140966 C299.484337,164.042362 299.746231,163.942609 300.007501,163.841014 L300.529174,163.635165 C305.910479,161.478455 310.99145,158.338247 314.716088,148.104888 Z M621.329643,151.302734 C609.959269,147.164256 603.766943,164.177533 614.827701,169.166674 C625.695522,172.158883 631.887848,155.145606 621.329643,151.302734 Z M965.704145,133.130579 C954.333771,128.992102 948.141445,146.005378 959.202203,150.99452 C970.070024,153.986728 976.26235,136.973452 965.704145,133.130579 Z M658.312743,120.449153 C666.981999,96.6305659 643.972056,81.5121468 621.1863,101.156104 L621.1863,101.156104 L622.963154,111.436375 C635.226542,100.486204 654.063543,96.7454073 648.876324,116.051223 C644.1154,131.658777 627.369454,124.600397 617.309217,142.132579 L617.309217,142.132579 L625.816787,149.082501 C629.941484,141.894306 634.793291,139.505077 639.637431,137.663653 L639.637431,137.663653 L640.34619,137.397593 C640.6018,137.302665 640.857289,137.208685 641.112548,137.115028 L641.622729,136.927961 C641.877635,136.834457 642.132239,136.74086 642.386433,136.646543 L642.894244,136.456766 C642.978777,136.424915 643.063257,136.392937 643.14768,136.36081 L643.653492,136.16607 C649.209126,134.000131 654.479301,130.981448 658.312743,120.449153 Z M162.493945,128.256369 C151.123571,124.117891 144.931244,141.131168 155.992002,146.12031 C166.859823,149.112518 173.05215,132.099241 162.493945,128.256369 Z M1002.68724,102.276999 C1011.3565,78.4584112 988.346558,63.3399921 965.560802,82.9839488 L965.560802,82.9839488 L967.337656,93.2642205 C979.601044,82.3140492 998.438045,78.5732526 993.250826,97.879068 C988.489902,113.486623 971.743956,106.428242 961.683719,123.960424 L961.683719,123.960424 L970.191289,130.910346 C974.617793,123.196186 979.881706,121.008972 985.07487,119.094417 L985.07487,119.094417 L985.782505,118.834538 C986.01818,118.748145 986.253624,118.661823 986.488751,118.575078 L986.488751,118.575078 L987.193097,118.313076 C987.455494,118.214472 987.717387,118.114719 987.978658,118.013125 L988.500331,117.807276 C993.881635,115.650566 998.962606,112.510358 1002.68724,102.276999 Z M199.477044,97.4027883 C208.146301,73.5842009 185.136358,58.4657818 162.350601,78.1097385 L162.350601,78.1097385 L164.127456,88.3900102 C176.390843,77.4398389 195.227845,73.6990423 190.040625,93.0048578 C185.279701,108.612412 168.533756,101.554032 158.473519,119.086214 L158.473519,119.086214 L166.981089,126.036136 C171.810002,117.620689 177.635502,115.782764 183.278551,113.700867 L183.278551,113.700867 L183.982896,113.438866 C189.843102,111.23671 195.452032,108.461418 199.477044,97.4027883 Z M1262.50494,105.329695 C1251.13457,101.191218 1244.94224,118.204494 1256.003,123.193636 C1266.87082,126.185844 1273.06315,109.172568 1262.50494,105.329695 Z M506.0906,105.209916 C494.720225,101.071438 488.527899,118.084715 499.588657,123.073857 C510.456478,126.066065 516.648804,109.052789 506.0906,105.209916 Z M850.465102,86.6006345 C839.094727,82.4621567 832.902401,99.4754334 843.963159,104.464575 C854.83098,107.456783 861.023306,90.4435068 850.465102,86.6006345 Z M543.073699,74.3563355 C551.742956,50.5377482 528.733012,35.4193291 505.947256,55.0632858 L505.947256,55.0632858 L507.724111,65.3435575 C519.987498,54.3933861 538.8245,50.6525896 533.63728,69.958405 C528.876356,85.5659596 512.130411,78.507579 502.070173,96.0397612 L502.070173,96.0397612 L510.577743,102.989683 C514.953032,95.3647778 520.146463,93.1396623 525.281039,91.240327 L525.873179,91.02233 L525.873179,91.02233 L526.168959,90.9138745 L527.227648,90.5239168 C533.214766,88.2979551 538.968186,85.636138 543.073699,74.3563355 Z M44.3797658,82.1635513 C33.0093915,78.0250735 26.8170652,95.0383502 37.8778232,100.027492 C48.7456442,103.0197 54.9379705,86.0064236 44.3797658,82.1635513 Z M1171.94319,68.6605241 C1160.57281,64.5220463 1154.38049,81.535323 1165.44125,86.5244646 C1176.30907,89.516673 1182.50139,72.5033963 1171.94319,68.6605241 Z M887.448201,55.7470538 C896.117458,31.9284664 873.107514,16.8100473 850.321758,36.454004 L850.321758,36.454004 L852.098613,46.7342757 C864.362,35.7841044 883.199002,32.0433078 878.011782,51.3491232 C873.250858,66.9566778 856.504913,59.8982973 846.444675,77.4304794 L846.444675,77.4304794 L854.952245,84.3804014 C859.37875,76.6662413 864.642662,74.4790274 869.835826,72.5644719 L869.835826,72.5644719 L870.543461,72.3045927 C870.779136,72.2182007 871.01458,72.1318786 871.249707,72.0451329 L871.249707,72.0451329 L871.954053,71.7831317 C872.21645,71.6845276 872.478344,71.5847745 872.739614,71.4831802 L873.261287,71.2773314 C878.642592,69.1206211 883.723563,65.9804127 887.448201,55.7470538 Z M81.3628649,51.3099706 C90.0321217,27.4913832 67.0221785,12.3729641 44.2364223,32.0169208 L44.2364223,32.0169208 L46.0132767,42.2971925 C58.2766641,31.3470212 77.1136658,27.6062246 71.9264461,46.9120401 C67.165522,62.5195946 50.4195768,55.4612141 40.3593395,72.9933962 L40.3593395,72.9933962 L48.8669094,79.9433182 C53.1027988,72.5613468 58.1055281,70.2405656 63.0792822,68.37666 L63.6759427,68.1548897 C64.172959,67.9714174 64.6693672,67.7906722 65.1643715,67.6080497 L65.1643715,67.6080497 L65.868717,67.3460485 C71.7289232,65.1438918 77.3378528,62.3686004 81.3628649,51.3099706 Z M392.972033,54.5078607 C381.601658,50.3693829 375.409332,67.3826596 386.47009,72.3718012 C397.337911,75.3640096 403.530237,58.3507329 392.972033,54.5078607 Z M1208.92629,37.8069434 C1217.59555,13.988356 1194.5856,-1.13006309 1171.79985,18.5138936 L1171.79985,18.5138936 L1173.5767,28.7941653 C1185.84009,17.843994 1204.67709,14.1031974 1199.48987,33.4090128 C1194.72895,49.0165674 1177.983,41.9581869 1167.92276,59.490369 L1167.92276,59.490369 L1176.43033,66.440291 C1180.85684,58.7261309 1186.12075,56.538917 1191.31391,54.6243615 L1191.31391,54.6243615 L1192.02155,54.3644823 C1192.25722,54.2780903 1192.49267,54.1917682 1192.72779,54.1050225 L1192.72779,54.1050225 L1193.43214,53.8430213 C1193.69454,53.7444172 1193.95643,53.6446641 1194.2177,53.5430698 L1194.73937,53.337221 C1200.12068,51.1805107 1205.20165,48.0403023 1208.92629,37.8069434 Z M730.616496,31.898535 C719.246122,27.7600572 713.053795,44.7733339 724.114553,49.7624755 C734.982374,52.7546839 741.174701,35.7414073 730.616496,31.898535 Z M1075.17825,18.0048335 C1063.80787,13.8663557 1057.61555,30.8796323 1068.67631,35.868774 C1079.54413,38.8609824 1085.73645,21.8477057 1075.17825,18.0048335 Z M262.972033,13.5078607 C251.601658,9.36938289 245.409332,26.3826596 256.47009,31.3718012 C267.337911,34.3640096 273.530237,17.3507329 262.972033,13.5078607 Z" id="Background"></path>
        </g>
    </g>
</svg>